<svg width="1200" height="630" viewBox="0 0 1200 630" fill="none" xmlns="http://www.w3.org/2000/svg">
  <rect width="1200" height="630" fill="#0EA5E9"/>
  <rect width="1200" height="630" fill="url(#paint0_linear)"/>
  <path d="M200 315C200 267.654 238.654 229 286 229H914C961.346 229 1000 267.654 1000 315C1000 362.346 961.346 401 914 401H286C238.654 401 200 362.346 200 315Z" fill="white" fill-opacity="0.1"/>
  <path d="M313.57 348.472C307.736 348.472 302.604 347.336 298.174 345.064C293.744 342.696 290.322 339.458 287.906 335.35C285.49 331.194 284.258 326.398 284.21 320.962C284.258 315.526 285.49 310.754 287.906 306.646C290.322 302.538 293.744 299.324 298.174 297.004C302.604 294.636 307.736 293.452 313.57 293.452C317.39 293.452 320.906 294.038 324.118 295.21C327.33 296.334 330.108 297.994 332.428 300.19C333.124 300.838 333.568 301.606 333.76 302.494C333.952 303.382 333.856 304.246 333.472 305.086C333.088 305.926 332.548 306.55 331.852 306.958C331.204 307.366 330.436 307.57 329.548 307.57C328.372 307.57 327.316 307.222 326.38 306.526C324.78 305.11 322.988 304.054 321.004 303.358C319.02 302.662 316.526 302.314 313.522 302.314C309.366 302.314 305.786 303.19 302.782 304.942C299.826 306.694 297.602 309.16 296.09 312.34C294.578 315.472 293.822 318.9 293.822 322.624C293.822 326.444 294.602 329.92 296.162 333.052C297.77 336.184 300.042 338.626 302.998 340.426C305.954 342.178 309.462 343.054 313.522 343.054C316.43 343.054 318.9 342.694 320.932 341.974C322.964 341.254 324.78 340.198 326.38 338.806C327.316 338.11 328.372 337.762 329.548 337.762C330.436 337.762 331.204 337.942 331.852 338.302C332.548 338.662 333.088 339.238 333.472 340.03C333.856 340.822 333.952 341.686 333.76 342.622C333.568 343.51 333.124 344.302 332.428 344.998C330.108 347.194 327.318 348.878 324.07 350.05C320.87 347.664 317.39 348.472 313.57 348.472ZM363.933 348.568C358.099 348.568 352.967 347.42 348.537 345.124C344.107 342.78 340.685 339.53 338.269 335.374C335.853 331.17 334.621 326.326 334.621 320.842C334.621 315.358 335.853 310.538 338.317 306.382C340.781 302.226 344.227 299 348.657 296.704C353.087 294.36 358.219 293.188 364.053 293.188C369.887 293.188 375.019 294.36 379.449 296.704C383.879 299 387.325 302.226 389.789 306.382C392.253 310.538 393.485 315.358 393.485 320.842C393.485 326.326 392.253 331.17 389.789 335.374C387.373 339.53 383.951 342.78 379.521 345.124C375.091 347.42 369.959 348.568 363.933 348.568ZM363.933 339.658C368.283 339.658 371.975 338.806 375.011 337.102C378.047 335.35 380.319 332.874 381.831 329.674C383.343 326.474 384.099 323.902 384.099 320.842C384.099 317.782 383.343 315.142 381.831 312.034C380.319 308.926 378.047 306.478 375.011 304.726C371.975 302.974 368.283 302.098 363.933 302.098C359.583 302.098 355.891 302.974 352.855 304.726C349.819 306.478 347.547 308.926 346.035 312.034C344.523 315.142 343.767 317.782 343.767 320.842C343.767 323.902 344.523 326.474 346.035 329.674C347.547 332.874 349.819 335.35 352.855 337.102C355.891 338.806 359.583 339.658 363.933 339.658ZM420.72 348.52C414.596 348.52 409.284 347.384 404.784 345.112C400.332 342.84 396.884 339.662 394.44 335.578C392.044 331.446 390.82 326.662 390.772 321.226C390.82 315.79 392.044 310.778 394.44 306.694C396.884 302.61 400.356 299.384 404.856 297.064C409.356 294.744 414.692 293.584 420.864 293.584C424.684 293.584 427.856 293.896 430.376 294.52C432.896 295.144 434.932 295.936 436.492 296.896C438.1 297.808 439.348 298.852 440.236 300.028C441.124 301.156 441.7 302.308 441.964 303.484C442.276 304.564 442.252 305.596 441.892 306.58C441.532 307.564 440.98 308.356 440.236 308.956C439.492 309.556 438.604 309.868 437.572 309.892C436.3 309.868 435.148 309.424 434.116 308.56C433.18 307.768 432.172 307.192 431.092 306.832C430.06 306.424 428.7 306.1 427.02 305.86C425.34 305.62 423.38 305.5 421.14 305.5C417.08 305.5 413.596 306.364 410.688 308.092C407.78 309.82 405.556 312.224 404.016 315.304C402.476 318.384 401.732 321.748 401.684 325.396C401.732 329.02 402.476 332.32 404.016 335.284C405.556 338.2 407.78 340.472 410.688 342.104C413.644 343.736 417.152 344.552 421.212 344.552C423.452 344.552 425.412 344.336 427.092 343.904C428.772 343.424 430.132 342.944 431.164 342.464C432.244 342.008 433.252 341.336 434.188 340.448C435.172 339.512 436.324 339.044 437.644 339.044C438.676 339.044 439.588 339.38 440.38 340.052C441.172 340.676 441.724 341.48 442.036 342.464C442.348 343.448 442.324 344.432 441.964 345.416C441.652 346.352 441.004 347.192 440.02 347.936C439.084 348.632 437.812 349.28 436.204 349.88C434.644 350.432 432.604 350.912 430.084 351.32C427.564 351.728 424.396 351.932 420.72 351.932V348.52ZM503.266 348C502.426 348 501.634 347.796 500.89 347.388C500.194 346.932 499.666 346.26 499.306 345.372L478.346 295.936C477.986 295.048 477.842 294.208 477.914 293.416C478.034 292.624 478.37 291.952 478.922 291.4C479.474 290.8 480.194 290.392 481.082 290.176C481.97 289.96 482.906 290.032 483.89 290.392L503.266 338.056L522.642 290.392C523.626 290.032 524.562 289.96 525.45 290.176C526.338 290.392 527.058 290.8 527.61 291.4C528.162 291.952 528.474 292.624 528.546 293.416C528.666 294.208 528.522 295.048 528.114 295.936L507.226 345.372C506.866 346.26 506.362 346.932 505.714 347.388C505.066 347.796 504.25 348 503.266 348ZM541.599 347.76C540.087 347.76 538.839 347.268 537.855 346.284C536.871 345.3 536.379 344.052 536.379 342.54V299.468C536.379 297.956 536.871 296.708 537.855 295.724C538.839 294.74 540.087 294.248 541.599 294.248C543.111 294.248 544.359 294.74 545.343 295.724C546.327 296.708 546.819 297.956 546.819 299.468V342.54C546.819 344.052 546.327 345.3 545.343 346.284C544.359 347.268 543.111 347.76 541.599 347.76ZM541.599 285.1C539.703 285.1 538.119 284.5 536.847 283.3C535.623 282.052 535.011 280.444 535.011 278.476C535.011 276.508 535.623 274.924 536.847 273.724C538.119 272.476 539.703 271.852 541.599 271.852C543.495 271.852 545.055 272.476 546.279 273.724C547.551 274.924 548.187 276.508 548.187 278.476C548.187 280.444 547.551 282.052 546.279 283.3C545.055 284.5 543.495 285.1 541.599 285.1ZM584.764 348.592C579.888 348.592 575.54 347.464 571.72 345.208C567.948 342.952 564.98 339.616 562.816 335.2C560.7 330.736 559.644 324.968 559.644 317.896V299.288C559.644 297.728 560.136 296.48 561.12 295.544C562.104 294.608 563.376 294.14 564.936 294.14C566.544 294.14 567.816 294.608 568.752 295.544C569.688 296.48 570.156 297.728 570.156 299.288V318.268C570.156 323.338 570.78 327.464 572.028 330.644C573.276 333.824 575.148 336.164 577.644 337.664C580.14 339.164 583.18 339.944 586.764 340.004C589.596 339.944 592.068 339.26 594.18 337.952C596.292 336.644 597.984 334.868 599.256 332.624C600.576 330.38 601.5 327.8 602.028 324.884C602.556 321.968 602.82 318.896 602.82 315.668V299.288C602.82 297.728 603.288 296.48 604.224 295.544C605.208 294.608 606.48 294.14 608.04 294.14C609.648 294.14 610.932 294.608 611.892 295.544C612.852 296.48 613.332 297.728 613.332 299.288V315.644C613.332 324.44 612.12 331.548 609.696 336.968C607.272 342.388 603.9 346.336 599.58 348.808C595.26 351.28 590.264 352.516 584.764 352.516V348.592ZM645.855 348.472C639.975 348.472 634.863 347.36 630.519 345.136C626.175 342.864 622.803 339.644 620.403 335.476C618.003 331.26 616.803 326.398 616.803 320.89C616.803 315.382 618.003 310.67 620.403 306.646C622.851 302.574 626.175 299.402 630.375 297.13C634.575 294.81 639.423 293.65 644.919 293.65C650.127 293.65 654.663 294.762 658.527 296.986C662.439 299.162 665.487 302.226 667.671 306.178C669.855 310.13 670.947 314.766 670.947 320.086C670.947 321.022 670.635 321.814 670.011 322.462C669.435 323.062 668.571 323.362 667.419 323.362H625.539C625.827 328.096 627.531 331.74 630.651 334.294C633.771 336.8 637.959 338.062 643.215 338.08C645.951 338.08 648.351 337.708 650.415 336.964C652.479 336.172 654.303 335.114 655.887 333.79C656.631 333.166 657.351 332.71 658.047 332.422C658.791 332.134 659.535 331.99 660.279 331.99C661.359 331.99 662.271 332.326 663.015 332.998C663.759 333.622 664.239 334.438 664.455 335.446C664.719 336.454 664.575 337.462 664.023 338.47C663.519 339.478 662.607 340.342 661.287 341.062C659.295 342.382 656.919 343.426 654.159 344.194C651.399 347.046 648.831 348.472 645.855 348.472ZM645.015 303.598C640.047 303.598 636.051 304.774 633.027 307.126C630.003 309.478 628.119 312.77 627.375 317.002H661.767C661.239 312.77 659.487 309.478 656.559 307.126C653.631 304.774 649.791 303.598 645.015 303.598ZM688.481 347.76C686.969 347.76 685.721 347.268 684.737 346.284C683.753 345.3 683.261 344.052 683.261 342.54V299.468C683.261 297.956 683.753 296.708 684.737 295.724C685.721 294.74 686.969 294.248 688.481 294.248C689.993 294.248 691.241 294.74 692.225 295.724C693.209 296.708 693.701 297.956 693.701 299.468V342.54C693.701 344.052 693.209 345.3 692.225 346.284C691.241 347.268 689.993 347.76 688.481 347.76ZM688.481 285.1C686.585 285.1 685.001 284.5 683.729 283.3C682.505 282.052 681.893 280.444 681.893 278.476C681.893 276.508 682.505 274.924 683.729 273.724C685.001 272.476 686.585 271.852 688.481 271.852C690.377 271.852 691.937 272.476 693.161 273.724C694.433 274.924 695.069 276.508 695.069 278.476C695.069 280.444 694.433 282.052 693.161 283.3C691.937 284.5 690.377 285.1 688.481 285.1ZM734.782 348.472C729.634 348.472 725.022 347.324 720.946 345.028C716.918 342.732 713.758 339.506 711.466 335.35C709.222 331.194 708.1 326.38 708.1 320.914C708.1 315.446 709.222 310.61 711.466 306.43C713.758 302.25 716.918 299 720.946 296.656C725.022 294.312 729.634 293.14 734.782 293.14C738.77 293.14 742.422 293.872 745.738 295.336C749.054 296.8 751.79 298.912 753.95 301.672C754.742 302.608 755.198 303.64 755.318 304.768C755.486 305.896 755.318 306.928 754.814 307.864C754.31 308.8 753.638 309.52 752.798 310.024C751.958 310.528 751.022 310.696 749.99 310.528C748.91 310.312 747.878 309.76 746.894 308.872C745.478 307.456 743.75 306.376 741.71 305.632C739.67 304.888 737.422 304.528 734.966 304.552C730.714 304.576 727.254 305.8 724.586 308.248C721.918 310.648 720.55 314.372 720.478 319.42H749.582C751.094 319.42 752.342 319.876 753.326 320.788C754.31 321.652 754.802 322.756 754.802 324.1C754.802 329.616 753.71 334.348 751.526 338.296C749.342 342.196 746.342 345.172 742.526 347.224C738.71 348.056 734.782 348.472 734.782 348.472ZM734.782 337.856C737.598 337.856 740.026 337.184 742.066 335.84C744.106 334.496 745.574 332.696 746.462 330.44H720.766C721.654 332.84 723.158 334.712 725.294 336.056C727.478 337.256 730.034 337.856 734.782 337.856ZM795.066 348.472C789.186 348.472 784.074 347.36 779.73 345.136C775.386 342.864 772.014 339.644 769.614 335.476C767.214 331.26 766.014 326.398 766.014 320.89C766.014 315.382 767.214 310.67 769.614 306.646C772.062 302.574 775.386 299.402 779.586 297.13C783.786 294.81 788.634 293.65 794.13 293.65C799.338 293.65 803.874 294.762 807.738 296.986C811.65 299.162 814.698 302.226 816.882 306.178C819.066 310.13 820.158 314.766 820.158 320.086C820.158 321.022 819.846 321.814 819.222 322.462C818.646 323.062 817.782 323.362 816.63 323.362H774.75C775.038 328.096 776.742 331.74 779.862 334.294C782.982 336.8 787.17 338.062 792.426 338.08C795.162 338.08 797.562 337.708 799.626 336.964C801.69 336.172 803.514 335.114 805.098 333.79C805.842 333.166 806.562 332.71 807.258 332.422C808.002 332.134 808.746 331.99 809.49 331.99C810.57 331.99 811.482 332.326 812.226 332.998C812.97 333.622 813.45 334.438 813.666 335.446C813.93 336.454 813.786 337.462 813.234 338.47C812.73 339.478 811.818 340.342 810.498 341.062C808.506 342.382 806.13 343.426 803.37 344.194C800.61 347.046 798.042 348.472 795.066 348.472ZM794.226 303.598C789.258 303.598 785.262 304.774 782.238 307.126C779.214 309.478 777.33 312.77 776.586 317.002H810.978C810.45 312.77 808.698 309.478 805.77 307.126C802.842 304.774 799.002 303.598 794.226 303.598ZM848.572 348.52C842.304 348.52 836.916 347.36 832.408 345.04C827.9 342.72 824.436 339.512 822.016 335.416C819.596 331.272 818.38 326.464 818.38 321C818.38 315.536 819.596 310.754 822.028 306.658C824.46 302.514 827.9 299.3 832.348 297.016C836.844 294.684 842.232 293.518 848.5 293.518C851.776 293.518 854.92 293.95 857.932 294.814C860.992 295.63 863.476 296.758 865.372 298.198C866.212 298.75 866.836 299.422 867.244 300.214C867.7 301.006 867.892 301.798 867.82 302.59C867.796 303.382 867.532 304.15 867.028 304.894C866.524 305.638 865.78 306.166 864.796 306.478C863.86 306.79 862.924 306.79 861.988 306.478C861.052 306.166 860.14 305.662 859.252 304.966C858.028 304.078 856.42 303.334 854.428 302.734C852.436 302.134 850.252 301.822 847.876 301.798C843.576 301.798 839.948 302.638 836.992 304.318C834.084 306.046 831.876 308.518 830.364 311.734C828.9 314.95 828.168 317.734 828.168 320.088C828.168 323.748 828.948 327.148 830.508 330.29C832.068 333.384 834.3 335.848 837.208 337.68C840.116 339.512 843.552 340.428 847.516 340.428C849.652 340.428 851.656 340.152 853.528 339.6C855.448 339.048 857.224 338.376 858.856 337.584C859.912 336.984 860.8 336.6 861.52 336.432C862.24 336.216 862.96 336.108 863.68 336.108C864.664 336.108 865.504 336.396 866.2 336.972C866.896 337.5 867.352 338.184 867.568 339.024C867.832 339.864 867.796 340.716 867.46 341.58C867.172 342.396 866.56 343.092 865.624 343.668C862.716 345.684 859.6 347.132 856.276 348.016C852.952 348.352 850.564 348.52 848.572 348.52ZM893.989 348.472C892.525 348.472 891.445 348.196 890.749 347.644C890.101 347.092 889.597 346.324 889.237 345.34C888.925 344.308 888.949 343.264 889.309 342.208L904.069 299.136C904.429 298.08 905.029 297.264 905.869 296.688C906.757 296.112 907.765 295.824 908.893 295.824C910.021 295.824 911.005 296.112 911.845 296.688C912.733 297.264 913.357 298.08 913.717 299.136L928.477 342.208C928.837 343.264 928.837 344.308 928.477 345.34C928.165 346.324 927.685 347.092 927.037 347.644C926.389 348.196 925.285 348.472 923.725 348.472C922.693 348.472 921.781 348.232 920.989 347.752C920.245 347.272 919.669 346.54 919.261 345.556L917.293 339.704H900.493L898.525 345.556C898.117 346.54 897.517 347.272 896.725 347.752C895.981 348.232 895.069 348.472 893.989 348.472ZM903.145 330.794H914.641L908.893 311.418L903.145 330.794Z" fill="white"/>
  <defs>
    <linearGradient id="paint0_linear" x1="0" y1="0" x2="1200" y2="630" gradientUnits="userSpaceOnUse">
      <stop stop-color="#0EA5E9"/>
      <stop offset="1" stop-color="#0369A1"/>
    </linearGradient>
  </defs>
</svg> 